# xmcd
# 
# Track frame offsets:
#     150
#     38361
#     89257
#     117030
#     140814
# 
# Disc length: 2512
# 
# Revision: 0
# Processed by: cddbd v1.5.2PL0 Copyright (c) Steve Scherf et al.
# Submitted via: fre:ac v1.0.17
# 
DISCID=3709ce05
DTITLE=ATAVISMO - Inerte
DYEAR=2017
DGENRE=Progressive Rock
TTITLE0=PAN Y DOLOR
TTITLE1=EL SUENO
TTITLE2=LA MALDICION DEL ZISCO
TTITLE3=BELLEZA CUATRO
TTITLE4=VOLARAS
EXTD=
EXTT0=
EXTT1=
EXTT2=
EXTT3=
EXTT4=
PLAYORDER=
